# Blender 3.5.1
# www.blender.org
mtllib Model2.mtl
o Cube
v 0.059299 0.400142 3.755387
v 0.059299 3.833994 3.755387
v 0.059299 0.400142 -4.002548
v 0.059299 3.833994 -4.002548
v 0.234028 0.400142 3.755387
v 0.234028 3.833994 3.755387
v 0.234028 0.400142 -4.002548
v 0.234028 3.833994 -4.002548
v -0.074206 3.884902 3.998484
v -0.074206 4.000747 3.998484
v -0.074206 3.884902 -4.239655
v -0.074206 4.000747 -4.239655
v 0.289577 3.884902 3.998484
v 0.289577 4.000747 3.998484
v 0.289577 3.884902 -4.239655
v 0.289577 4.000747 -4.239655
v -0.074206 0.000000 3.998484
v -0.074206 3.884902 3.998484
v -0.074206 0.000000 3.780746
v -0.074206 3.884902 3.780746
v 0.287249 0.000000 3.998484
v 0.287249 3.884902 3.998484
v 0.287249 0.000000 3.780746
v 0.287249 3.884902 3.780746
v -0.074206 0.000000 -4.012041
v -0.074206 3.884902 -4.012041
v -0.074206 0.000000 -4.229778
v -0.074206 3.884902 -4.229778
v 0.287249 0.000000 -4.012041
v 0.287249 3.884902 -4.012041
v 0.287249 0.000000 -4.229778
v 0.287249 3.884902 -4.229778
v -0.074206 0.229546 3.998484
v -0.074206 0.345390 3.998484
v -0.074206 0.229546 -4.239655
v -0.074206 0.345390 -4.239655
v 0.289577 0.229546 3.998484
v 0.289577 0.345390 3.998484
v 0.289577 0.229546 -4.239655
v 0.289577 0.345390 -4.239655
vn -1.0000 -0.0000 -0.0000
vn -0.0000 -0.0000 -1.0000
vn 1.0000 -0.0000 -0.0000
vn -0.0000 -0.0000 1.0000
vn -0.0000 -1.0000 -0.0000
vn -0.0000 1.0000 -0.0000
vt 0.375000 0.000000
vt 0.375000 1.000000
vt 0.125000 0.750000
vt 0.625000 0.000000
vt 0.625000 1.000000
vt 0.875000 0.750000
vt 0.375000 0.250000
vt 0.125000 0.500000
vt 0.625000 0.250000
vt 0.875000 0.500000
vt 0.375000 0.750000
vt 0.625000 0.750000
vt 0.375000 0.500000
vt 0.625000 0.500000
vt 0.375000 0.000000
vt 0.375000 1.000000
vt 0.125000 0.750000
vt 0.625000 0.000000
vt 0.625000 1.000000
vt 0.526563 0.677778
vt 0.375000 0.250000
vt 0.125000 0.500000
vt 0.625000 0.250000
vt 0.526563 0.427778
vt 0.375000 0.750000
vt 0.625000 0.750000
vt 0.276563 0.677778
vt 0.375000 0.500000
vt 0.625000 0.500000
vt 0.276563 0.427778
vt 0.375000 0.000000
vt 0.375000 1.000000
vt 0.125000 0.750000
vt 0.625000 0.000000
vt 0.625000 1.000000
vt 0.875000 0.750000
vt 0.375000 0.250000
vt 0.125000 0.500000
vt 0.625000 0.250000
vt 0.875000 0.500000
vt 0.375000 0.750000
vt 0.625000 0.750000
vt 0.375000 0.500000
vt 0.625000 0.500000
vt 0.375000 0.000000
vt 0.375000 1.000000
vt 0.125000 0.750000
vt 0.625000 0.000000
vt 0.625000 1.000000
vt 0.875000 0.750000
vt 0.375000 0.250000
vt 0.125000 0.500000
vt 0.625000 0.250000
vt 0.875000 0.500000
vt 0.026563 0.677778
vt 0.375000 0.750000
vt 0.276563 0.677778
vt 0.625000 0.750000
vt 0.026563 0.427778
vt 0.375000 0.500000
vt 0.276563 0.427778
vt 0.625000 0.500000
vt 0.375000 0.000000
vt 0.026563 0.927778
vt 0.125000 0.750000
vt 0.625000 0.000000
vt 0.276563 0.927778
vt 0.875000 0.750000
vt 0.375000 0.250000
vt 0.125000 0.500000
vt 0.625000 0.250000
vt 0.875000 0.500000
vt 0.026563 0.677778
vt 0.375000 0.750000
vt 0.276563 0.677778
vt 0.625000 0.750000
vt 0.026563 0.427778
vt 0.375000 0.500000
vt 0.273043 0.427488
vt 0.625000 0.500000
s 0
usemtl Material.001
f 1/1/1 2/4/1 4/9/1 3/7/1
f 3/7/2 4/9/2 8/14/2 7/13/2
f 7/13/3 8/14/3 6/12/3 5/11/3
f 5/11/4 6/12/4 2/5/4 1/2/4
f 3/8/5 7/13/5 5/11/5 1/3/5
f 8/14/6 4/10/6 2/6/6 6/12/6
f 9/15/1 10/18/1 12/23/1 11/21/1
f 11/21/2 12/23/2 16/29/2 15/28/2
f 15/28/3 16/29/3 14/26/3 13/25/3
f 13/25/4 14/26/4 10/19/4 9/16/4
f 11/22/5 15/28/5 13/25/5 9/17/5
f 16/30/6 12/24/6 10/20/6 14/27/6
f 17/31/1 18/34/1 20/39/1 19/37/1
f 19/37/2 20/39/2 24/44/2 23/43/2
f 23/43/3 24/44/3 22/42/3 21/41/3
f 21/41/4 22/42/4 18/35/4 17/32/4
f 19/38/5 23/43/5 21/41/5 17/33/5
f 24/44/6 20/40/6 18/36/6 22/42/6
f 25/45/1 26/48/1 28/53/1 27/51/1
f 27/51/2 28/53/2 32/62/2 31/60/2
f 31/59/3 32/61/3 30/57/3 29/55/3
f 29/56/4 30/58/4 26/49/4 25/46/4
f 27/52/5 31/60/5 29/56/5 25/47/5
f 32/62/6 28/54/6 26/50/6 30/58/6
f 33/63/1 34/66/1 36/71/1 35/69/1
f 35/69/2 36/71/2 40/80/2 39/78/2
f 39/77/3 40/79/3 38/75/3 37/73/3
f 37/73/4 38/75/4 34/67/4 33/64/4
f 35/70/5 39/78/5 37/74/5 33/65/5
f 40/80/6 36/72/6 34/68/6 38/76/6
