# Created by RapidCompact v6.3.1 | www.rapidcompact.com
mtllib rapid.mtl
o Cylinder
v -0.045782999999999997 0.125019999999999992 -1.179550000000000098
v -0.052907000000000003 0.401774999999999993 -1.135172000000000070
v 0.544803000000000037 0.255423000000000011 -0.956641000000000186
v 0.509510999999999936 0.010435000000000000 -0.901609000000000105
v 0.903135000000000021 0.324829000000000090 -0.472441000000000000
v 0.896891000000000105 0.011889000000000000 -0.469583000000000028
v 0.972731999999999930 0.330360000000000098 0.105939000000000005
v 0.981912999999999925 0.015539000000000001 0.106259000000000006
v 0.729561000000000015 0.279062000000000032 0.637868000000000102
v 0.759382000000000001 0.040814000000000003 0.644599000000000144
v 0.247773000000000021 0.300547000000000009 0.959511999999999921
v 0.280980000000000063 0.070137000000000005 1.045018000000000002
v -0.351312000000000069 0.285074000000000050 0.997520999999999991
v -0.357430999999999999 -0.004032000000000000 0.996214999999999962
v -0.825088000000000044 0.334568000000000088 0.633565999999999963
v -0.874559000000000086 -0.058027000000000002 0.664216000000000029
v -1.058777000000000079 0.331185000000000063 0.104157000000000000
v -1.064478999999999953 0.002366000000000000 0.105875000000000011
v -1.145599999999999952 0.262145999999999990 -0.541591000000000045
v -1.125603999999999827 0.154099000000000041 -0.513929999999999998
v -0.611582999999999988 0.333295000000000008 -0.917910000000000004
v -0.603209000000000106 0.006085000000000000 -0.906077000000000021
vn 0.07964 0.02216 -0.99658
vn -0.18564 0.08209 -0.97918
vn 0.52148 -0.10723 -0.84650
vn 0.66787 -0.16932 -0.72476
vn 0.88350 -0.08947 -0.45982
vn 0.94641 -0.00448 -0.32294
vn 0.99848 0.01208 0.05368
vn 0.97612 0.05681 0.20966
vn 0.83457 0.07916 0.54518
vn 0.72094 0.20330 0.66251
vn 0.42502 0.28384 0.85953
vn 0.19449 0.23412 0.95256
vn -0.23483 0.11244 0.96551
vn -0.43322 0.05749 0.89945
vn -0.71573 0.10808 0.68996
vn -0.82291 0.10869 0.55767
vn -0.95525 0.06437 0.28873
vn -0.97940 -0.00718 0.20181
vn -0.99197 -0.09217 -0.08657
vn -0.71065 -0.13034 -0.69136
vn -0.49989 -0.08405 -0.86200
vn -0.48429 0.00842 -0.87487
vn 0.00516 0.99989 0.01424
vn 0.07497 0.87949 0.46998
vn 0.07466 0.93131 0.35650
vn 0.00502 0.99998 0.00426
vn 0.00548 0.99800 -0.06300
vn 0.06121 0.99812 0.00305
vn 0.03186 0.99949 -0.00055
vn -0.00240 0.99971 -0.02391
vn -0.05148 0.99864 -0.00884
vn -0.19599 0.98056 0.00978
vn -0.21098 0.97736 0.01604
vn -0.01416 -0.99884 -0.04592
vn -0.33633 -0.89113 0.30458
vn -0.18716 -0.97795 0.09268
vn -0.11955 -0.99277 0.01102
vn -0.08747 -0.99614 -0.00738
vn 0.03093 -0.99910 -0.02919
vn 0.12352 -0.99149 -0.04112
vn 0.07369 -0.99512 -0.06567
vn -0.08279 -0.98372 -0.15948
vn -0.16130 -0.96216 -0.21964
vn 0.47077 -0.40924 0.78160
vt 0.01946 0.86348
vt 0.00105 0.91777
vt 0.18060 0.88584
vt 0.17105 0.94368
vt 0.35045 0.89938
vt 0.34505 0.96754
vt 0.52039 0.90546
vt 0.51051 0.99911
vt 0.68243 0.91777
vt 0.67486 0.99542
vt 0.86235 0.94722
vt 0.85153 0.97245
vt 0.97626 0.42776
vt 0.89786 0.42993
vt 0.92762 0.28129
vt 0.99852 0.27844
vt 0.91168 0.14054
vt 0.99895 0.13950
vt 0.90518 0.00395
vt 0.99267 0.00089
vt 0.92082 0.72800
vt 0.95240 0.72857
vt 0.90760 0.57266
vt 0.99895 0.57560
vt 0.57442 0.13936
vt 0.66233 0.13936
vt 0.58699 0.00089
vt 0.65409 0.00172
vt 0.87890 0.51774
vt 0.73590 0.42701
vt 0.56700 0.41885
vt 0.42200 0.48121
vt 0.33709 0.59998
vt 0.33709 0.73708
vt 0.42142 0.85980
vt 0.57985 0.90567
vt 0.73907 0.88199
vt 0.90313 0.81309
vt 0.91012 0.65803
vt 0.07106 0.06132
vt 0.23199 0.00089
vt 0.39395 0.00089
vt 0.53111 0.07483
vt 0.60413 0.19815
vt 0.60122 0.34582
vt 0.47437 0.45403
vt 0.30944 0.49647
vt 0.15626 0.44334
vt 0.00935 0.35630
vt 0.00105 0.19826
usemtl material_0
f 4/16/4 5/17/5 6/18/6
f 6/18/6 5/17/5 7/19/7
f 4/16/4 3/15/3 5/17/5
f 3/30/23 7/32/32 5/31/33
f 1/40/34 4/41/35 6/42/36
f 1/13/1 3/15/3 4/16/4
f 6/18/6 7/19/7 8/20/8
f 1/40/34 6/42/36 8/43/37
f 8/26/8 7/25/7 9/27/9
f 3/30/23 9/33/31 7/32/32
f 8/26/8 9/27/9 10/28/10
f 1/40/34 8/43/37 10/44/38
f 10/2/10 9/1/9 11/3/11
f 3/30/23 11/34/30 9/33/31
f 10/2/10 11/3/11 12/4/12
f 1/40/34 10/44/38 12/45/39
f 12/4/12 11/3/11 13/5/13
f 3/30/23 13/35/29 11/34/30
f 12/4/12 13/5/13 14/6/14
f 1/40/34 12/45/39 14/46/40
f 14/6/14 13/5/13 15/7/15
f 3/30/23 15/36/28 13/35/29
f 14/6/14 15/7/15 16/8/16
f 1/40/34 14/46/40 16/47/41
f 16/8/16 15/7/15 17/9/17
f 3/30/23 17/37/27 15/36/28
f 16/8/16 17/9/17 18/10/18
f 1/40/34 16/47/41 18/48/42
f 3/30/23 19/38/26 17/37/27
f 18/10/18 17/9/17 19/11/19
f 1/13/1 2/14/2 3/15/3
f 18/10/18 19/11/19 20/12/20
f 1/40/34 18/48/42 20/49/43
f 3/30/23 21/39/25 19/38/26
f 20/22/20 19/21/19 21/23/21
f 3/30/23 2/29/24 21/39/25
f 1/40/44 20/49/44 22/50/44
f 22/24/22 2/14/2 1/13/1
f 20/22/20 21/23/21 22/24/22
f 22/24/22 21/23/21 2/14/2
