# Blender v3.5.1 OBJ File: ''
# www.blender.org
mtllib untitled.mtl
o Cube.009_Cube.011
v -2.180808 -0.015344 1.734155
v -2.174028 0.145589 1.744039
v -2.110014 -0.022997 1.544066
v -2.124974 0.140507 1.544971
v -0.856467 -0.002389 2.142479
v -0.854644 0.125123 2.142615
v -0.803198 -0.002126 1.982031
v -0.804092 0.126628 1.980335
v 0.626679 -0.002571 0.981046
v 0.628663 0.129318 0.984672
v 0.629032 -0.005408 0.808563
v 0.622242 0.127952 0.809142
v 2.004896 -0.020305 0.998473
v 2.018012 0.139579 0.995048
v 2.010558 -0.012043 0.802020
v 2.003820 0.139980 0.796917
v 0.636236 -0.009054 0.014984
v 0.645595 0.142928 0.024730
v 0.621960 -0.008092 -0.166303
v 0.612578 0.130008 -0.163825
v 1.996659 0.000000 -0.204536
v 1.996659 0.123165 -0.204536
v 1.971466 0.000000 -0.367136
v 1.971466 0.123165 -0.367136
v 2.148282 -0.014060 0.992236
v 2.161970 0.147479 1.002585
v 2.167057 -0.014866 0.798913
v 2.155657 0.133532 0.803404
v 2.931294 -0.042636 1.018467
v 2.962701 0.149453 1.003621
v 2.942183 -0.017425 0.795742
v 2.924528 0.151649 0.783724
v 2.226550 0.000000 -0.027902
v 2.226550 0.123165 -0.027902
v 2.165483 0.000000 -0.180690
v 2.165483 0.123165 -0.180690
v 2.908658 0.000000 -0.300534
v 2.908658 0.123165 -0.300534
v 2.847590 0.000000 -0.453322
v 2.847590 0.123165 -0.453322
v 3.261092 0.000000 1.223656
v 3.261092 0.114521 1.223656
v 3.260877 -0.000240 0.827082
v 3.260748 0.114791 0.827052
v 3.525294 0.000000 1.223655
v 3.525294 0.114521 1.223655
v 3.525294 0.000000 0.827322
v 3.525294 0.114521 0.827322
v 3.261092 -0.079591 -0.514252
v 3.261092 -0.073435 -0.399897
v 3.261091 0.316170 -0.535557
v 3.261092 0.322326 -0.421202
v 3.525293 -0.079591 -0.514252
v 3.525294 -0.073435 -0.399897
v 3.525294 0.316170 -0.535557
v 3.525293 0.322326 -0.421202
v -0.558343 -0.025174 0.634534
v -0.534789 0.184140 0.656479
v -0.523897 -0.027504 0.097052
v -0.549171 0.158253 0.104189
v 0.002847 -0.033922 0.642247
v 0.045115 0.164355 0.638713
v 0.010766 -0.014152 0.111988
v 0.000350 0.164452 0.096815
v -0.022344 -0.005919 0.936947
v -0.021530 0.134405 0.941832
v -0.018100 -0.008022 -0.124038
v -0.027426 0.130150 -0.122846
v 0.326686 -0.009729 0.940778
v 0.337558 0.132079 0.939512
v 0.330707 -0.006336 -0.122297
v 0.328229 0.134204 -0.126797
v -1.744261 -0.019422 1.070345
v -1.722546 0.143921 1.087553
v -1.706646 -0.005210 -0.256817
v -1.710974 0.110756 -0.255618
v -0.711902 -0.024092 1.073652
v -0.687412 0.122873 1.068359
v -0.715510 -0.004744 -0.255696
v -0.719615 0.113987 -0.259466
v -2.310050 -0.016900 1.067389
v -2.297441 0.134675 1.078678
v -2.290680 -0.018617 -0.270077
v -2.305422 0.119716 -0.264789
v -1.291629 -0.017851 1.068132
v -1.273860 0.119261 1.063771
v -1.282716 -0.009623 -0.260563
v -1.292733 0.121862 -0.267340
v -0.863779 -0.014161 -1.964419
v -0.866555 0.149435 -1.982993
v -0.999841 -0.023747 -1.814569
v -0.978740 0.139710 -1.806547
v -1.965584 -0.001382 -2.808452
v -1.966666 0.124083 -2.808732
v -2.068251 -0.000556 -2.677414
v -2.068048 0.124132 -2.676735
vt 0.375000 0.000000
vt 0.625000 0.000000
vt 0.625000 0.250000
vt 0.375000 0.250000
vt 0.625000 0.500000
vt 0.375000 0.500000
vt 0.625000 0.750000
vt 0.375000 0.750000
vt 0.625000 1.000000
vt 0.375000 1.000000
vt 0.125000 0.500000
vt 0.125000 0.750000
vt 0.875000 0.500000
vt 0.875000 0.750000
vt 0.375000 0.000000
vt 0.625000 0.000000
vt 0.625000 0.250000
vt 0.375000 0.250000
vt 0.625000 0.500000
vt 0.375000 0.500000
vt 0.625000 0.750000
vt 0.375000 0.750000
vt 0.625000 1.000000
vt 0.375000 1.000000
vt 0.125000 0.500000
vt 0.125000 0.750000
vt 0.875000 0.500000
vt 0.875000 0.750000
vt 0.375000 0.000000
vt 0.625000 0.000000
vt 0.625000 0.250000
vt 0.375000 0.250000
vt 0.625000 0.500000
vt 0.375000 0.500000
vt 0.625000 0.750000
vt 0.375000 0.750000
vt 0.625000 1.000000
vt 0.375000 1.000000
vt 0.125000 0.500000
vt 0.125000 0.750000
vt 0.875000 0.500000
vt 0.875000 0.750000
vt 0.375000 0.000000
vt 0.625000 0.000000
vt 0.625000 0.250000
vt 0.375000 0.250000
vt 0.625000 0.500000
vt 0.375000 0.500000
vt 0.625000 0.750000
vt 0.375000 0.750000
vt 0.625000 1.000000
vt 0.375000 1.000000
vt 0.125000 0.500000
vt 0.125000 0.750000
vt 0.875000 0.500000
vt 0.875000 0.750000
vt 0.375000 0.000000
vt 0.625000 0.000000
vt 0.625000 0.250000
vt 0.375000 0.250000
vt 0.625000 0.500000
vt 0.375000 0.500000
vt 0.625000 0.750000
vt 0.375000 0.750000
vt 0.625000 1.000000
vt 0.375000 1.000000
vt 0.125000 0.500000
vt 0.125000 0.750000
vt 0.875000 0.500000
vt 0.875000 0.750000
vt 0.375000 0.000000
vt 0.625000 0.000000
vt 0.625000 0.250000
vt 0.375000 0.250000
vt 0.625000 0.500000
vt 0.375000 0.500000
vt 0.625000 0.750000
vt 0.375000 0.750000
vt 0.625000 1.000000
vt 0.375000 1.000000
vt 0.125000 0.500000
vt 0.125000 0.750000
vt 0.875000 0.500000
vt 0.875000 0.750000
vt 0.375000 0.000000
vt 0.625000 0.000000
vt 0.625000 0.250000
vt 0.375000 0.250000
vt 0.625000 0.500000
vt 0.375000 0.500000
vt 0.625000 0.750000
vt 0.375000 0.750000
vt 0.625000 1.000000
vt 0.375000 1.000000
vt 0.125000 0.500000
vt 0.125000 0.750000
vt 0.875000 0.500000
vt 0.875000 0.750000
vt 0.375000 0.000000
vt 0.625000 0.000000
vt 0.625000 0.250000
vt 0.375000 0.250000
vt 0.625000 0.500000
vt 0.375000 0.500000
vt 0.625000 0.750000
vt 0.375000 0.750000
vt 0.625000 1.000000
vt 0.375000 1.000000
vt 0.125000 0.500000
vt 0.125000 0.750000
vt 0.875000 0.500000
vt 0.875000 0.750000
vt 0.375000 0.000000
vt 0.625000 0.000000
vt 0.625000 0.250000
vt 0.375000 0.250000
vt 0.625000 0.500000
vt 0.375000 0.500000
vt 0.625000 0.750000
vt 0.375000 0.750000
vt 0.625000 1.000000
vt 0.375000 1.000000
vt 0.125000 0.500000
vt 0.125000 0.750000
vt 0.875000 0.500000
vt 0.875000 0.750000
vt 0.375000 0.000000
vt 0.625000 0.000000
vt 0.625000 0.250000
vt 0.375000 0.250000
vt 0.625000 0.500000
vt 0.375000 0.500000
vt 0.625000 0.750000
vt 0.375000 0.750000
vt 0.625000 1.000000
vt 0.375000 1.000000
vt 0.125000 0.500000
vt 0.125000 0.750000
vt 0.875000 0.500000
vt 0.875000 0.750000
vt 0.375000 0.000000
vt 0.625000 0.000000
vt 0.625000 0.250000
vt 0.375000 0.250000
vt 0.625000 0.500000
vt 0.375000 0.500000
vt 0.625000 0.750000
vt 0.375000 0.750000
vt 0.625000 1.000000
vt 0.375000 1.000000
vt 0.125000 0.500000
vt 0.125000 0.750000
vt 0.875000 0.500000
vt 0.875000 0.750000
vt 0.375000 0.000000
vt 0.625000 0.000000
vt 0.625000 0.250000
vt 0.375000 0.250000
vt 0.625000 0.500000
vt 0.375000 0.500000
vt 0.625000 0.750000
vt 0.375000 0.750000
vt 0.625000 1.000000
vt 0.375000 1.000000
vt 0.125000 0.500000
vt 0.125000 0.750000
vt 0.875000 0.500000
vt 0.875000 0.750000
vn -0.9557 -0.0143 -0.2939
vn 0.3153 0.0145 -0.9489
vn 0.9520 -0.0016 0.3062
vn -0.2919 -0.0245 0.9561
vn 0.0055 -0.9997 0.0230
vn 0.0148 0.9999 -0.0058
vn -0.9998 -0.0183 0.0119
vn -0.0068 -0.0162 -0.9998
vn 0.9995 -0.0210 -0.0221
vn -0.0100 -0.0002 0.9999
vn -0.0088 -0.9999 -0.0149
vn -0.0080 1.0000 -0.0021
vn -0.9919 -0.0054 0.1270
vn -0.1476 0.0041 -0.9890
vn 0.9882 0.0000 -0.1531
vn 0.1630 -0.0405 0.9858
vn 0.0058 -1.0000 -0.0035
vn 0.0038 0.9993 -0.0374
vn -0.9994 0.0089 -0.0321
vn -0.0145 -0.0250 -0.9996
vn 0.9970 -0.0427 -0.0641
vn -0.0170 0.0149 0.9997
vn -0.0191 -0.9980 -0.0599
vn -0.0131 0.9996 -0.0266
vn -0.9286 0.0000 0.3711
vn -0.3711 0.0000 -0.9286
vn 0.9286 0.0000 -0.3711
vn 0.3711 0.0000 0.9286
vn 0.0000 -1.0000 0.0000
vn 0.0000 1.0000 0.0000
vn -1.0000 -0.0006 0.0007
vn 0.0010 -0.0001 -1.0000
vn 1.0000 0.0000 0.0000
vn 0.0000 0.0000 1.0000
vn 0.0005 -1.0000 0.0003
vn 0.0005 1.0000 0.0003
vn -1.0000 -0.0000 0.0000
vn 0.0000 0.9986 -0.0538
vn -0.0000 -0.9986 0.0538
vn 0.0000 -0.0538 -0.9986
vn -0.0000 0.0538 0.9986
vn -0.9998 -0.0030 -0.0183
vn 0.0074 -0.0213 -0.9997
vn 0.9957 -0.0859 -0.0358
vn 0.0076 -0.0464 0.9989
vn 0.0045 -0.9999 -0.0162
vn 0.0115 0.9996 -0.0242
vn -0.9995 -0.0306 0.0009
vn -0.0030 -0.0120 -0.9999
vn 0.9996 -0.0298 -0.0026
vn -0.0022 -0.0127 0.9999
vn -0.0030 -1.0000 -0.0006
vn -0.0024 1.0000 -0.0010
vn -0.9978 0.0634 -0.0188
vn -0.0014 -0.0110 -0.9999
vn 0.9969 -0.0770 -0.0137
vn 0.0072 -0.0394 0.9992
vn -0.0020 -0.9999 -0.0127
vn 0.0086 0.9998 -0.0158
vn -1.0000 -0.0071 -0.0042
vn 0.0035 -0.0052 -1.0000
vn 0.9996 -0.0290 -0.0039
vn 0.0067 -0.0247 0.9997
vn 0.0040 -1.0000 -0.0024
vn 0.0065 1.0000 -0.0047
vn 0.7963 -0.0251 0.6044
vn -0.6260 0.0227 0.7795
vn -0.7901 -0.0018 -0.6129
vn 0.6038 -0.0439 -0.7959
vn 0.0048 -0.9996 -0.0271
vn -0.0280 0.9995 0.0120
usemtl None
s off
f 1/1/1 2/2/1 4/3/1 3/4/1
f 3/4/2 4/3/2 8/5/2 7/6/2
f 7/6/3 8/5/3 6/7/3 5/8/3
f 5/8/4 6/7/4 2/9/4 1/10/4
f 3/11/5 7/6/5 5/8/5 1/12/5
f 8/5/6 4/13/6 2/14/6 6/7/6
f 9/15/7 10/16/7 12/17/7 11/18/7
f 11/18/8 12/17/8 16/19/8 15/20/8
f 15/20/9 16/19/9 14/21/9 13/22/9
f 13/22/10 14/21/10 10/23/10 9/24/10
f 11/25/11 15/20/11 13/22/11 9/26/11
f 16/19/12 12/27/12 10/28/12 14/21/12
f 17/29/13 18/30/13 20/31/13 19/32/13
f 19/32/14 20/31/14 24/33/14 23/34/14
f 23/34/15 24/33/15 22/35/15 21/36/15
f 21/36/16 22/35/16 18/37/16 17/38/16
f 19/39/17 23/34/17 21/36/17 17/40/17
f 24/33/18 20/41/18 18/42/18 22/35/18
f 25/43/19 26/44/19 28/45/19 27/46/19
f 27/46/20 28/45/20 32/47/20 31/48/20
f 31/48/21 32/47/21 30/49/21 29/50/21
f 29/50/22 30/49/22 26/51/22 25/52/22
f 27/53/23 31/48/23 29/50/23 25/54/23
f 32/47/24 28/55/24 26/56/24 30/49/24
f 33/57/25 34/58/25 36/59/25 35/60/25
f 35/60/26 36/59/26 40/61/26 39/62/26
f 39/62/27 40/61/27 38/63/27 37/64/27
f 37/64/28 38/63/28 34/65/28 33/66/28
f 35/67/29 39/62/29 37/64/29 33/68/29
f 40/61/30 36/69/30 34/70/30 38/63/30
f 41/71/31 42/72/31 44/73/31 43/74/31
f 43/74/32 44/73/32 48/75/32 47/76/32
f 47/76/33 48/75/33 46/77/33 45/78/33
f 45/78/34 46/77/34 42/79/34 41/80/34
f 43/81/35 47/76/35 45/78/35 41/82/35
f 48/75/36 44/83/36 42/84/36 46/77/36
f 49/85/37 50/86/37 52/87/37 51/88/37
f 51/88/38 52/87/38 56/89/38 55/90/38
f 55/90/33 56/89/33 54/91/33 53/92/33
f 53/92/39 54/91/39 50/93/39 49/94/39
f 51/95/40 55/90/40 53/92/40 49/96/40
f 56/89/41 52/97/41 50/98/41 54/91/41
f 57/99/42 58/100/42 60/101/42 59/102/42
f 59/102/43 60/101/43 64/103/43 63/104/43
f 63/104/44 64/103/44 62/105/44 61/106/44
f 61/106/45 62/105/45 58/107/45 57/108/45
f 59/109/46 63/104/46 61/106/46 57/110/46
f 64/103/47 60/111/47 58/112/47 62/105/47
f 65/113/48 66/114/48 68/115/48 67/116/48
f 67/116/49 68/115/49 72/117/49 71/118/49
f 71/118/50 72/117/50 70/119/50 69/120/50
f 69/120/51 70/119/51 66/121/51 65/122/51
f 67/123/52 71/118/52 69/120/52 65/124/52
f 72/117/53 68/125/53 66/126/53 70/119/53
f 73/127/54 74/128/54 76/129/54 75/130/54
f 75/130/55 76/129/55 80/131/55 79/132/55
f 79/132/56 80/131/56 78/133/56 77/134/56
f 77/134/57 78/133/57 74/135/57 73/136/57
f 75/137/58 79/132/58 77/134/58 73/138/58
f 80/131/59 76/139/59 74/140/59 78/133/59
f 81/141/60 82/142/60 84/143/60 83/144/60
f 83/144/61 84/143/61 88/145/61 87/146/61
f 87/146/62 88/145/62 86/147/62 85/148/62
f 85/148/63 86/147/63 82/149/63 81/150/63
f 83/151/64 87/146/64 85/148/64 81/152/64
f 88/145/65 84/153/65 82/154/65 86/147/65
f 89/155/66 90/156/66 92/157/66 91/158/66
f 91/158/67 92/157/67 96/159/67 95/160/67
f 95/160/68 96/159/68 94/161/68 93/162/68
f 93/162/69 94/161/69 90/163/69 89/164/69
f 91/165/70 95/160/70 93/162/70 89/166/70
f 96/159/71 92/167/71 90/168/71 94/161/71
